<svg width="165" height="177" viewBox="0 0 165 177" fill="none" xmlns="http://www.w3.org/2000/svg">
<rect width="165" height="177" fill="white"/>
<rect width="150" height="150" transform="translate(8 14)" fill="white"/>
<path d="M44.5531 154.646C48.9338 148.68 51.0506 143.291 51.9305 137.526C52.5408 133.543 52.5844 129.299 52.38 124.534L54.772 124.657V124.643C56.3276 124.755 57.9213 124.804 59.4823 124.883L59.6267 124.888C59.8174 129.811 59.7411 134.282 59.0764 138.627C58.0194 145.536 55.5239 151.938 50.3776 158.948L44.5531 154.646ZM31.776 120.941L47.9585 137.123L46.5936 143.618L25.7089 122.733C22.8457 123.85 20.0642 125.362 17.3834 127.395L13 121.652C26.4472 111.455 40.9052 112.201 55.3877 112.947C57.0223 113.032 58.6569 113.116 59.97 113.174C65.7047 113.419 71.3958 113.465 76.858 112.558L62.4273 98.1272L63.7895 91.6297L83.1648 111.002C87.0116 109.708 90.7684 107.736 94.4026 104.777L67.2466 77.624C62.3456 82.9582 60.0626 88.7991 59.12 95.0078C58.4634 99.3259 58.4416 103.892 58.6487 108.619L55.8672 108.477C55.7091 108.461 55.5511 108.452 55.3877 108.452C54.0582 108.384 52.7315 108.316 51.402 108.256C51.2058 103.371 51.2631 98.5903 51.9741 93.9072C53.1456 86.1838 56.066 78.8962 62.4382 72.1971C69.2381 65.0458 76.5148 61.3026 84.0475 59.4282C90.0328 57.938 96.0645 57.6547 102.107 57.7691C102.191 59.1967 102.29 60.6624 102.396 62.1744C102.464 63.1251 102.529 64.0705 102.592 65.0131C97.996 64.9041 93.4519 65.0185 89.0575 65.7596L103.799 80.5008L102.434 86.9956L82.7616 67.3233C78.8277 68.6582 74.9837 70.7042 71.2732 73.7909L98.4673 100.985C103.565 95.5663 105.918 89.6219 106.88 83.296C107.893 76.6323 107.398 69.372 106.869 61.8502C106.272 53.3585 105.899 46.3679 106.924 39.6742C107.981 32.7681 110.476 26.3632 115.622 19.3535L121.444 23.6579C117.066 29.6242 114.949 35.0129 114.067 40.7748C113.154 46.7493 113.511 53.3176 114.072 61.3298C114.631 69.2821 115.154 76.9592 114.026 84.3966C112.852 92.1201 109.934 99.4049 103.562 106.107C96.7619 113.258 89.4852 117.001 81.9525 118.876C74.5723 120.712 67.124 120.717 59.6703 120.398C57.9049 120.322 56.4556 120.249 55.009 120.172C47.1275 119.766 39.2543 119.361 31.776 120.941ZM133.592 57.4913L117.965 41.8646L119.33 35.3698L139.741 55.7804C142.795 54.6443 145.764 53.0697 148.617 50.9066L153 56.6522C142.105 64.9096 130.554 65.9911 118.862 65.7051C118.763 64.1468 118.655 62.583 118.546 61.0056C118.483 60.1366 118.426 59.2866 118.371 58.4502C123.536 58.5919 128.647 58.4611 133.592 57.4913Z" fill="#060D3A"/>
</svg>
